<svg width="24" height="27" viewBox="0 0 24 27" fill="none" xmlns="http://www.w3.org/2000/svg">
<path d="M9.50638 2.91455C9.04776 4.87255 8.98536 6.90249 9.32285 8.88496C9.66033 10.8674 10.3909 12.7624 11.4715 14.4583C12.5522 16.1543 13.9611 17.617 15.6154 18.7604C17.2697 19.9038 19.136 20.7048 21.1044 21.1163C20.0695 22.187 18.83 23.0388 17.4595 23.6212C16.089 24.2037 14.6155 24.5049 13.1264 24.5069C12.9878 24.5069 12.8481 24.512 12.7084 24.5069C10.1161 24.4152 7.63774 23.4184 5.70386 21.6895C3.76997 19.9607 2.50272 17.6091 2.12221 15.0432C1.74169 12.4773 2.27195 9.85914 3.62089 7.64349C4.96982 5.42784 7.05221 3.75466 9.50638 2.91455V2.91455ZM10.9845 0.5C10.9259 0.500091 10.8674 0.505313 10.8098 0.515606C7.6243 1.08142 4.76083 2.80592 2.77092 5.35696C0.781017 7.908 -0.194565 11.1051 0.0320836 14.3325C0.258733 17.5599 1.67158 20.5893 3.9985 22.8372C6.32541 25.0851 9.4018 26.3925 12.6351 26.5075C12.7993 26.5135 12.9634 26.5075 13.1262 26.5075C15.2258 26.5086 17.2949 26.0042 19.1584 25.0368C21.0219 24.0694 22.6251 22.6675 23.8324 20.9497C23.9303 20.8017 23.9874 20.6305 23.9981 20.4534C24.0087 20.2762 23.9725 20.0994 23.893 19.9407C23.8136 19.782 23.6937 19.6471 23.5455 19.5495C23.3973 19.4519 23.226 19.395 23.0488 19.3847C21.0502 19.2094 19.1187 18.5768 17.4035 17.536C15.6884 16.4951 14.2356 15.0737 13.1574 13.3818C12.0792 11.6899 11.4045 9.77268 11.1854 7.7784C10.9663 5.78412 11.2088 3.76617 11.894 1.88054C11.9523 1.72968 11.9737 1.56707 11.9565 1.40626C11.9392 1.24544 11.8838 1.09108 11.7948 0.956022C11.7058 0.820963 11.5858 0.709117 11.4449 0.629796C11.3039 0.550474 11.1461 0.505974 10.9845 0.5V0.5Z" fill="black"/>
</svg>
