<svg width="25" height="24" viewBox="0 0 25 24" fill="none" xmlns="http://www.w3.org/2000/svg">
<path d="M2.52693 23.3416L24.0066 1.86194C24.3546 1.51395 24.4261 1.02133 24.1664 0.761631C23.9067 0.501933 23.4141 0.573503 23.0661 0.921487L1.58648 22.4011C1.2385 22.7491 1.16693 23.2417 1.42663 23.5014C1.68632 23.7611 2.17895 23.6896 2.52693 23.3416Z" fill="#0028B6"/>
<path d="M24.0066 22.4011L2.52693 0.921494C2.17895 0.57351 1.68632 0.50194 1.42662 0.761638C1.16693 1.02134 1.2385 1.51396 1.58648 1.86195L23.0661 23.3416C23.4141 23.6896 23.9067 23.7611 24.1664 23.5014C24.4261 23.2417 24.3546 22.7491 24.0066 22.4011Z" fill="#0028B6"/>
</svg>
