<svg width="25" height="25" viewBox="0 0 25 25" fill="none" xmlns="http://www.w3.org/2000/svg">
<path fill-rule="evenodd" clip-rule="evenodd" d="M11.2391 0.850586H12.9534V5.1363H11.2391V0.850586ZM4.21716 3.75934L3.0051 4.9714L6.0101 7.9764L7.22216 6.76434L4.21716 3.75934ZM12.0963 9.42201C12.7744 9.42201 13.4373 9.6231 14.0011 9.99983C14.5649 10.3766 15.0044 10.912 15.2639 11.5385C15.5234 12.165 15.5913 12.8544 15.459 13.5195C15.3267 14.1845 15.0001 14.7955 14.5206 15.275C14.0412 15.7544 13.4302 16.081 12.7652 16.2133C12.1001 16.3456 11.4107 16.2777 10.7842 16.0182C10.1577 15.7587 9.62227 15.3192 9.24553 14.7554C8.8688 14.1916 8.66771 13.5287 8.66771 12.8506C8.66873 11.9416 9.03029 11.0701 9.67305 10.4273C10.3158 9.78459 11.1873 9.42304 12.0963 9.42201ZM12.0963 7.70773C11.0791 7.70773 10.0848 8.00935 9.23907 8.57446C8.39333 9.13956 7.73416 9.94277 7.3449 10.8825C6.95565 11.8222 6.85381 12.8563 7.05225 13.8539C7.25069 14.8515 7.74049 15.7679 8.45974 16.4871C9.17898 17.2064 10.0953 17.6962 11.093 17.8946C12.0906 18.0931 13.1246 17.9912 14.0644 17.602C15.0041 17.2127 15.8073 16.5535 16.3724 15.7078C16.9375 14.8621 17.2391 13.8677 17.2391 12.8506C17.2391 11.4866 16.6973 10.1785 15.7328 9.21404C14.7684 8.24956 13.4603 7.70773 12.0963 7.70773ZM0.096283 11.9934H4.382V13.7077H0.096283V11.9934ZM6.01005 17.7248L3.00504 20.7298L4.21711 21.9418L7.22211 18.9368L6.01005 17.7248ZM11.2391 20.5649H12.9534V24.8506H11.2391V20.5649ZM18.1826 17.7247L16.9705 18.9368L19.9755 21.9418L21.1876 20.7297L18.1826 17.7247ZM19.8106 11.9934H24.0963V13.7077H19.8106V11.9934ZM19.9755 3.75937L16.9705 6.76437L18.1826 7.97643L21.1876 4.97143L19.9755 3.75937Z" fill="black"/>
</svg>
