<svg width="20" height="20" viewBox="0 0 20 20" fill="none" xmlns="http://www.w3.org/2000/svg">
<path fill-rule="evenodd" clip-rule="evenodd" d="M6.16347 0.744608C7.38039 0.244966 8.6844 -0.00810546 9.99988 6.98617e-05C11.3154 -0.00810546 12.6194 0.244966 13.8363 0.744608C15.0532 1.24425 16.1588 1.98052 17.089 2.91072C18.0192 3.84092 18.7555 4.94654 19.2551 6.16347C19.7548 7.38039 20.0079 8.6844 19.9997 9.99988C20.0079 11.3154 19.7548 12.6194 19.2551 13.8363C18.7555 15.0532 18.0192 16.1588 17.089 17.089C16.1588 18.0192 15.0532 18.7555 13.8363 19.2551C12.6194 19.7548 11.3154 20.0079 9.99988 19.9997C8.6844 20.0079 7.38039 19.7548 6.16347 19.2551C4.94654 18.7555 3.84092 18.0192 2.91072 17.089C1.98052 16.1588 1.24425 15.0532 0.744608 13.8363C0.244966 12.6194 -0.00810546 11.3154 6.98617e-05 9.99988C-0.00810546 8.6844 0.244966 7.38039 0.744608 6.16347C1.24425 4.94654 1.98052 3.84092 2.91072 2.91072C3.84092 1.98052 4.94654 1.24425 6.16347 0.744608ZM5.23794 17.1266C6.64748 18.0684 8.30464 18.5711 9.99988 18.5711C12.2711 18.5645 14.4473 17.6593 16.0533 16.0533C17.6593 14.4473 18.5645 12.2711 18.5711 9.99988C18.5711 8.30464 18.0684 6.64748 17.1266 5.23794C16.1848 3.8284 14.8462 2.7298 13.28 2.08106C11.7138 1.43232 9.99037 1.26258 8.32771 1.59331C6.66505 1.92403 5.13779 2.74037 3.93908 3.93908C2.74037 5.13779 1.92403 6.66505 1.59331 8.32771C1.26258 9.99037 1.43232 11.7138 2.08106 13.28C2.7298 14.8462 3.8284 16.1848 5.23794 17.1266ZM5.00006 6.11097L6.111 5.00003L14.9999 13.8889L13.8889 14.9998L5.00006 6.11097Z" fill="black"/>
</svg>
