<svg width="20" height="18" viewBox="0 0 20 18" fill="none" xmlns="http://www.w3.org/2000/svg">
<path d="M18.5714 0H5.71429C5.33575 0.00111178 4.97303 0.151979 4.70536 0.419647C4.43769 0.687315 4.28683 1.05003 4.28571 1.42857V11.4286C4.28683 11.8071 4.43769 12.1698 4.70536 12.4375C4.97303 12.7052 5.33575 12.856 5.71429 12.8571H18.5714C18.95 12.856 19.3127 12.7052 19.5804 12.4375C19.848 12.1698 19.9989 11.8071 20 11.4286V1.42857C19.9989 1.05003 19.848 0.687315 19.5804 0.419647C19.3127 0.151979 18.95 0.00111178 18.5714 0V0ZM18.5714 11.4286H5.71429V1.42857H18.5714V11.4286Z" fill="black"/>
<path d="M11.4286 15.7143H1.42857V8.57139H2.85714V7.14282H1.42857C1.05003 7.14393 0.687315 7.2948 0.419647 7.56247C0.151979 7.83014 0.00111178 8.19285 0 8.57139V15.7143C0.00111178 16.0928 0.151979 16.4555 0.419647 16.7232C0.687315 16.9908 1.05003 17.1417 1.42857 17.1428H11.4286C11.8071 17.1417 12.1698 16.9908 12.4375 16.7232C12.7052 16.4555 12.856 16.0928 12.8571 15.7143V14.2857H11.4286V15.7143Z" fill="black"/>
</svg>
