<svg width="20" height="20" viewBox="0 0 20 20" fill="none" xmlns="http://www.w3.org/2000/svg">
<path fill-rule="evenodd" clip-rule="evenodd" d="M16.2963 8.14815C16.2976 10.0454 15.628 11.8821 14.4059 13.3333L20 18.9525L18.9525 20L13.3333 14.4059C11.8821 15.628 10.0454 16.2976 8.14815 16.2963C6.5366 16.2963 4.96124 15.8184 3.62128 14.9231C2.28133 14.0278 1.23696 12.7552 0.620244 11.2663C0.00353049 9.77743 -0.15783 8.13911 0.156568 6.55853C0.470966 4.97794 1.247 3.52608 2.38654 2.38654C3.52608 1.247 4.97794 0.470966 6.55853 0.156568C8.13911 -0.15783 9.77743 0.00353049 11.2663 0.620244C12.7552 1.23696 14.0278 2.28133 14.9231 3.62128C15.8184 4.96124 16.2963 6.5366 16.2963 8.14815ZM4.44435 13.6913C5.54068 14.4238 6.82961 14.8148 8.14815 14.8148C9.91566 14.8129 11.6102 14.1098 12.86 12.86C14.1098 11.6102 14.8129 9.91566 14.8148 8.14815C14.8148 6.82961 14.4238 5.54068 13.6913 4.44435C12.9587 3.34802 11.9175 2.49354 10.6994 1.98895C9.4812 1.48437 8.14075 1.35235 6.84755 1.60958C5.55434 1.86682 4.36646 2.50176 3.43411 3.43411C2.50176 4.36646 1.86682 5.55434 1.60958 6.84755C1.35235 8.14075 1.48437 9.4812 1.98895 10.6994C2.49354 11.9175 3.34802 12.9587 4.44435 13.6913ZM8.88889 7.40741H11.8518V8.88889H8.88889V11.8518H7.40741V8.88889H4.44444V7.40741H7.40741V4.44444H8.88889V7.40741Z" fill="black"/>
</svg>
